<?xml version="1.0" encoding="utf-8"?>
<!-- Generator: Adobe Illustrator 21.0.0, SVG Export Plug-In . SVG Version: 6.00 Build 0)  -->
<svg version="1.1" id="Layer_1" xmlns="http://www.w3.org/2000/svg" xmlns:xlink="http://www.w3.org/1999/xlink" x="0px" y="0px"
	 viewBox="0 0 80 80" style="enable-background:new 0 0 80 80;" xml:space="preserve">
<style type="text/css">
	.st0{fill:#EDECED;}
	.st1{fill:#9D00F8;}
	.st2{fill:#18082D;}
	.st3{fill:#48127E;}
	.st4{fill:#DED8E5;}
	.st5{fill:#FCFDFC;}
</style>
<rect x="-3480" y="-1064" class="st0" width="1024" height="1024"/>
<g>
	<circle class="st1" cx="-2890" cy="-847.8" r="8.5"/>
	<path class="st2" d="M-3161.1-350.8c0,0,107.3,27.5,206,7.2c54.1-11.1,156.6-42.3,224.3-128.8c69.6-89-111.3-233.8-162.2-256.1
		s-167-50.9-259.3,33.4c-92.3,84.3-120.9,181.3-105,279.9c0,0-62-144.7,27-275.2c93.8-137.3,244.9-128.8,300.6-109.7
		c0,0,154.3,30.2,249.7,189.3c0,0,85.9,133.6-58.9,232.2C-2883.5-280.1-3099.8-253-3161.1-350.8z"/>
	<g>
		<rect x="-3039.6" y="-476.4" class="st3" width="27" height="95.3"/>
		<polygon class="st3" points="-2931.5,-476.4 -2931.5,-453.2 -2954.6,-453.2 -2954.6,-381.1 -2981.7,-381.1 -2981.7,-453.2 
			-3004.9,-453.2 -3004.9,-476.4 		"/>
	</g>
	<g>
		<path class="st3" d="M-3013.9-591c-29.5,0-53.5,23.1-53.5,51.5c0,28.5,23.9,51.5,53.5,51.5s53.5-23.1,53.5-51.5
			C-2960.4-567.9-2984.4-591-3013.9-591z M-3013.9-512.4c-15.3,0-27.7-12-27.7-26.9s12.4-26.9,27.7-26.9s27.7,12,27.7,26.9
			S-2998.6-512.4-3013.9-512.4z"/>
		<polygon class="st3" points="-3118.9,-515 -3067.3,-515 -3067.3,-491.8 -3171.7,-491.8 -3152.4,-515 -3110.4,-564 -3167.8,-564 
			-3152.4,-587.2 -3055.7,-587.2 		"/>
		<polygon class="st3" points="-2928.2,-564 -2928.2,-549.8 -2881.9,-549.8 -2881.9,-526.6 -2928.2,-526.6 -2928.2,-515 
			-2881.9,-515 -2881.9,-491.8 -2955.3,-491.8 -2955.3,-587.2 -2881.9,-587.2 -2881.9,-564 		"/>
		<polygon class="st3" points="-2799.4,-515 -2799.4,-491.8 -2872.8,-491.8 -2872.8,-587.2 -2845.8,-587.2 -2845.8,-515 		"/>
	</g>
	<path class="st4" d="M-3109.4-628.9c0,0,58.1-64.8,132.5-56.4c74.4,8.4,115.8,57.4,115.8,57.4s-52.5-49.5-116.3-47.9
		C-3041.1-674.2-3055.8-666.9-3109.4-628.9z"/>
	<path class="st4" d="M-3201.9-595c0,0,73.2-97,154.3-112.9c81.1-15.9,143.1,17.5,143.1,17.5s87.5,42.9,138.4,146.3
		c0,0-39.8-105-140-155.9C-3006.2-750.9-3127.1-717.5-3201.9-595z"/>
	<path class="st4" d="M-2723.7-301.3c-136.9,133.5-356.1,132.4-491.8-3.2s-136.7-354.8-3.2-491.8
		c-128.5,132.1-123.5,347.3,12.1,482.9S-2855.8-172.8-2723.7-301.3z"/>
	<path class="st4" d="M-3212.3-802.7c136.9-133.5,356.1-132.4,491.8,3.2c135.6,135.6,136.7,354.8,3.2,491.8
		c128.5-132.1,123.5-347.3-12.1-482.9C-2865-926.2-3080.2-931.2-3212.3-802.7z"/>
	<g>
		<g>
			<g>
				<path class="st3" d="M-3190.9-400.2l9.4,7.7c0.6,0.5,0.4,1.4-0.3,1.7c-4.3,1.7-5.3,1.9-9.5,3.5c-7.6,3-15.3,5.9-22.9,8.9
					c-1.5,0.6-2.6,0.5-3.9-0.6c-2.4-2.1-4.9-4-7.3-6c-1.9-1.6-1.9-1.6,0.5-2.6c5.3-2.1,10.7-4.2,16.1-6.3c6.7-2.6,10.3-3.8,16.9-6.4
					C-3191.5-400.4-3191.1-400.4-3190.9-400.2z"/>
			</g>
			<g>
				<path class="st3" d="M-3142.6-380.6c0.6-2.1,0-4.3-1.6-5.6c-13.4-10.9-23.3-19-37.1-30.3c-13.4-10.9-26.8-21.8-40.2-32.7
					c-3.7-3-3.7-3-3.7,0c0,3.5,0.2,7.1-0.1,10.4c-0.2,2.1,1,3.6,3.6,5.7c17.2,14,34.4,28,51.6,42c-7,2.7-17.7,7-23.7,9.4
					c-5.4,2.1-10.7,4.2-16.1,6.3c-2.4,0.9-2.4,1-0.5,2.6c2.5,2,5,3.9,7.3,6c1.3,1.1,2.3,1.3,3.9,0.6c7.6-3,15.3-6,22.9-8.9
					c3.8-1.5,12.5-5,17.2-6.9c0.4,0.3,0.8,0.7,1.2,1l2.7,2.2c0.3,0.3,0.7,0.5,0.9,0.8l8.8,7.2L-3142.6-380.6z"/>
			</g>
			<g>
				<path class="st2" d="M-3225.4-361.9c-11.5-9.4-23-18.7-34.5-28.1c-2-1.6-2-1.8,0.5-2.7c16.9-6.6,33.9-13.2,50.8-19.9
					c1.2-0.5,2-0.3,2.9,0.5c2.6,2.2,5.3,4.4,8,6.5c1.5,1.1,1.1,1.7-0.4,2.3c-11.7,4.6-23.3,9.2-34.9,13.7c-4.4,1.7-4.4,1.7-0.8,4.6
					c15.3,12.5,30.6,24.9,45.9,37.3c1.3,1,1.7,2,1.4,3.7c-0.7,3.1-1.1,6.2-1.7,9.3c-0.5,2.6-0.5,2.7-2.6,1
					c-6-4.9-12.1-9.8-18.1-14.7C-3214.3-352.9-3219.8-357.4-3225.4-361.9C-3225.4-361.9-3225.4-361.9-3225.4-361.9z"/>
			</g>
		</g>
	</g>
	<circle class="st2" cx="-2966.3" cy="-839.3" r="11.9"/>
	
		<ellipse transform="matrix(0.1322 -0.9912 0.9912 0.1322 -1626.7531 -3478.999)" class="st1" cx="-2800.2" cy="-810.5" rx="6.8" ry="6.8"/>
	<g>
		<g>
			<circle class="st2" cx="-2717.2" cy="-730.8" r="6.8"/>
			<g>
				<circle class="st2" cx="-3088.3" cy="-835.9" r="3.4"/>
			</g>
			<circle class="st2" cx="-3254.4" cy="-695.2" r="6.8"/>
			<circle class="st2" cx="-2708.7" cy="-681.7" r="3.4"/>
			
				<ellipse transform="matrix(5.255883e-02 -0.9986 0.9986 5.255883e-02 -2214.1426 -3910.6226)" class="st2" cx="-3168" cy="-788.4" rx="3.2" ry="3.6"/>
			<circle class="st2" cx="-2852.7" cy="-818.9" r="3.4"/>
			<circle class="st2" cx="-2803.6" cy="-763" r="1.7"/>
		</g>
	</g>
</g>
<rect x="-2456" y="-1064" class="st3" width="1024" height="1024"/>
<g>
	<circle class="st1" cx="33.4" cy="2.9" r="0.4"/>
	<circle class="st1" cx="48.9" cy="6.2" r="1"/>
	<path class="st2" d="M17.9,63c0,0,12.3,3.1,23.5,0.8c6.2-1.3,17.9-4.8,25.6-14.7c8-10.2-12.7-26.7-18.5-29.3S29.5,14,18.9,23.6
		s-13.8,20.7-12,32c0,0-7.1-16.5,3.1-31.4C20.7,8.5,38,9.5,44.4,11.6c0,0,17.6,3.5,28.5,21.6c0,0,9.8,15.3-6.7,26.5
		S24.9,74.2,17.9,63z"/>
	<g>
		<g>
			<rect x="31.8" y="48.6" class="st5" width="3.1" height="10.9"/>
			<polygon class="st5" points="44.2,48.6 44.2,51.3 41.5,51.3 41.5,59.5 38.4,59.5 38.4,51.3 35.8,51.3 35.8,48.6 			"/>
		</g>
	</g>
	<g>
		<g>
			<path class="st5" d="M34.8,35.5c-3.4,0-6.1,2.6-6.1,5.9c0,3.3,2.7,5.9,6.1,5.9c3.4,0,6.1-2.6,6.1-5.9
				C40.9,38.2,38.1,35.5,34.8,35.5z M34.8,44.5c-1.7,0-3.2-1.4-3.2-3.1c0-1.7,1.4-3.1,3.2-3.1c1.7,0,3.2,1.4,3.2,3.1
				C37.9,43.1,36.5,44.5,34.8,44.5z"/>
			<polygon class="st5" points="22.8,44.2 28.6,44.2 28.6,46.9 16.7,46.9 18.9,44.2 23.7,38.6 17.2,38.6 18.9,36 30,36 			"/>
			<polygon class="st5" points="44.5,38.6 44.5,40.3 49.8,40.3 49.8,42.9 44.5,42.9 44.5,44.2 49.8,44.2 49.8,46.9 41.5,46.9 
				41.5,36 49.8,36 49.8,38.6 			"/>
			<polygon class="st5" points="59.3,44.2 59.3,46.9 50.9,46.9 50.9,36 54,36 54,44.2 			"/>
		</g>
	</g>
	<path class="st4" d="M23.8,31.2c0,0,6.6-7.4,15.1-6.4s13.2,6.6,13.2,6.6s-6-5.7-13.3-5.5C31.6,26,30,26.9,23.8,31.2z"/>
	<path class="st4" d="M13.3,35.1c0,0,8.4-11.1,17.6-12.9c9.3-1.8,16.4,2,16.4,2s10,4.9,15.8,16.7c0,0-4.5-12-16-17.8
		S21.8,21.1,13.3,35.1z"/>
	<path class="st4" d="M67.9,68.6c-15.6,15.3-40.7,15.1-56.2-0.4s-15.6-40.6-0.4-56.2C-3.3,27.2-2.8,51.8,12.7,67.3
		S52.8,83.3,67.9,68.6z"/>
	<path class="st4" d="M12.1,11.4C27.7-3.9,52.8-3.8,68.3,11.7s15.6,40.6,0.4,56.2c14.7-15.1,14.1-39.7-1.4-55.2S27.2-3.3,12.1,11.4z
		"/>
	<g>
		<path class="st5" d="M14.5,57.4l1.1,0.9c0.1,0.1,0.1,0.2,0,0.2c-0.5,0.2-0.6,0.2-1.1,0.4c-0.9,0.3-1.7,0.7-2.6,1
			c-0.2,0.1-0.3,0.1-0.4-0.1c-0.3-0.2-0.6-0.5-0.8-0.7c-0.2-0.2-0.2-0.2,0.1-0.3c0.6-0.2,1.2-0.5,1.8-0.7c0.8-0.3,1.2-0.4,1.9-0.7
			C14.5,57.3,14.5,57.3,14.5,57.4z"/>
		<path class="st5" d="M20,59.6c0.1-0.2,0-0.5-0.2-0.6c-1.5-1.2-2.7-2.2-4.2-3.5c-1.5-1.2-3.1-2.5-4.6-3.7c-0.4-0.3-0.4-0.3-0.4,0
			c0,0.4,0,0.8,0,1.2c0,0.2,0.1,0.4,0.4,0.7c2,1.6,3.9,3.2,5.9,4.8c-0.8,0.3-2,0.8-2.7,1.1c-0.6,0.2-1.2,0.5-1.8,0.7
			c-0.3,0.1-0.3,0.1-0.1,0.3c0.3,0.2,0.6,0.4,0.8,0.7c0.1,0.1,0.3,0.1,0.4,0.1c0.9-0.3,1.7-0.7,2.6-1c0.4-0.2,1.4-0.6,2-0.8
			c0,0,0.1,0.1,0.1,0.1l0.3,0.2c0,0,0.1,0.1,0.1,0.1l1,0.8L20,59.6z"/>
		<path class="st2" d="M10.6,61.7c-1.3-1.1-2.6-2.1-3.9-3.2c-0.2-0.2-0.2-0.2,0.1-0.3c1.9-0.8,3.9-1.5,5.8-2.3
			c0.1-0.1,0.2,0,0.3,0.1c0.3,0.3,0.6,0.5,0.9,0.7c0.2,0.1,0.1,0.2,0,0.3c-1.3,0.5-2.7,1-4,1.6c-0.5,0.2-0.5,0.2-0.1,0.5
			c1.7,1.4,3.5,2.8,5.2,4.3c0.1,0.1,0.2,0.2,0.2,0.4c-0.1,0.4-0.1,0.7-0.2,1.1c-0.1,0.3-0.1,0.3-0.3,0.1c-0.7-0.6-1.4-1.1-2.1-1.7
			C11.9,62.7,11.2,62.2,10.6,61.7C10.6,61.7,10.6,61.7,10.6,61.7z"/>
	</g>
	<circle class="st2" cx="40.2" cy="7.2" r="1.4"/>
	<ellipse transform="matrix(0.1322 -0.9912 0.9912 0.1322 40.9874 67.7353)" class="st1" cx="59.2" cy="10.5" rx="0.8" ry="0.8"/>
	<g>
		<g>
			<circle class="st5" cx="68.7" cy="19.6" r="0.8"/>
			<g>
				<circle class="st0" cx="26.2" cy="7.6" r="0.4"/>
			</g>
			<circle class="st5" cx="7.3" cy="23.6" r="0.8"/>
			<circle class="st5" cx="69.6" cy="25.2" r="0.4"/>
			
				<ellipse transform="matrix(5.255883e-02 -0.9986 0.9986 5.255883e-02 3.2816 29.4152)" class="st5" cx="17.1" cy="13" rx="0.4" ry="0.4"/>
			<circle class="st5" cx="53.2" cy="9.5" r="0.4"/>
			<circle class="st5" cx="58.8" cy="15.9" r="0.2"/>
		</g>
	</g>
</g>
</svg>
