<svg id="Layer_1" data-name="Layer 1" xmlns="http://www.w3.org/2000/svg" viewBox="0 0 50 50"><defs><style>.cls-1{fill:#9d00f8;}.cls-2{fill:#18082d;}.cls-3{fill:#48127e;}.cls-4{fill:#ded8e5;}</style></defs><title>Zoel IT Light</title><circle class="cls-1" cx="30.57" cy="3.87" r="0.61"/><path class="cls-2" d="M11.21,39.37s7.66,2,14.71.51c3.86-.8,11.19-3,16-9.2,5-6.36-8-16.7-11.59-18.29S18.42,8.75,11.84,14.77s-8.63,13-7.5,20c0,0-4.43-10.34,1.93-19.65A19.36,19.36,0,0,1,27.74,7.27,29.37,29.37,0,0,1,45.58,20.79s6.13,9.54-4.2,16.59S15.58,46.36,11.21,39.37Z"/><rect class="cls-3" x="19.88" y="30.4" width="1.93" height="6.81"/><polygon class="cls-3" points="27.61 30.4 27.61 32.06 25.95 32.06 25.95 37.21 24.02 37.21 24.02 32.06 22.37 32.06 22.37 30.4 27.61 30.4"/><path class="cls-3" d="M21.72,22.21a3.68,3.68,0,1,0,3.82,3.68A3.75,3.75,0,0,0,21.72,22.21Zm0,5.61a1.92,1.92,0,1,1,2-1.92A1.95,1.95,0,0,1,21.72,27.83Z"/><polygon class="cls-3" points="14.22 27.64 17.9 27.64 17.9 29.3 10.45 29.3 11.83 27.64 14.83 24.14 10.73 24.14 11.83 22.49 18.73 22.49 14.22 27.64"/><polygon class="cls-3" points="27.84 24.14 27.84 25.16 31.15 25.16 31.15 26.81 27.84 26.81 27.84 27.64 31.15 27.64 31.15 29.3 25.91 29.3 25.91 22.49 31.15 22.49 31.15 24.14 27.84 24.14"/><polygon class="cls-3" points="37.04 27.64 37.04 29.3 31.8 29.3 31.8 22.49 33.73 22.49 33.73 27.64 37.04 27.64"/><path class="cls-4" d="M14.9,19.51s4.15-4.63,9.47-4a13.47,13.47,0,0,1,8.27,4.1S28.89,16,24.33,16.16,18.73,16.79,14.9,19.51Z"/><path class="cls-4" d="M8.3,21.93s5.23-6.93,11-8.07a16.57,16.57,0,0,1,10.22,1.25,24.23,24.23,0,0,1,9.88,10.45s-2.84-7.5-10-11.13S13.64,13.18,8.3,21.93Z"/><path class="cls-4" d="M42.45,42.91A25,25,0,0,1,7.09,7.55C-2.09,17-1.73,32.36,8,42S33,52.09,42.45,42.91Z"/><path class="cls-4" d="M7.55,7.09A25,25,0,0,1,42.91,42.45C52.09,33,51.73,17.64,42,8S17-2.09,7.55,7.09Z"/><path class="cls-3" d="M9.08,35.85l.67.55a.07.07,0,0,1,0,.12l-.68.25-1.64.64a.23.23,0,0,1-.28,0c-.17-.15-.35-.29-.52-.43s-.14-.12,0-.18l1.15-.45L9,35.84A.07.07,0,0,1,9.08,35.85Z"/><path class="cls-3" d="M12.53,37.24a.38.38,0,0,0-.11-.4L9.76,34.68,6.89,32.34c-.26-.21-.26-.21-.26,0s0,.51,0,.75.07.26.26.41l3.69,3-1.69.67-1.15.45c-.17.07-.17.07,0,.18s.36.28.52.43a.23.23,0,0,0,.28,0l1.64-.64,1.23-.49.09.07.19.16.07.06.63.51Z"/><path class="cls-2" d="M6.62,38.58l-2.46-2c-.14-.12-.14-.13,0-.2L7.82,35A.18.18,0,0,1,8,35l.57.47c.11.08.08.12,0,.16l-2.5,1c-.31.12-.31.12-.06.33L9.3,39.59a.23.23,0,0,1,.1.26c0,.22-.08.45-.12.67s0,.19-.18.07L7.8,39.54l-1.18-1Z"/><circle class="cls-2" cx="25.12" cy="4.48" r="0.85"/><circle class="cls-1" cx="36.99" cy="6.54" r="0.48" transform="translate(25.62 42.33) rotate(-82.41)"/><circle class="cls-2" cx="42.92" cy="12.23" r="0.48"/><circle class="cls-2" cx="16.4" cy="4.72" r="0.24"/><circle class="cls-2" cx="4.54" cy="14.77" r="0.48"/><circle class="cls-2" cx="43.52" cy="15.74" r="0.24"/><ellipse class="cls-2" cx="10.71" cy="8.11" rx="0.23" ry="0.25" transform="translate(2.05 18.38) rotate(-86.99)"/><circle class="cls-2" cx="33.23" cy="5.93" r="0.24"/><circle class="cls-2" cx="36.74" cy="9.93" r="0.12"/></svg>